<svg width="297" height="513" viewBox="0 0 297 513" fill="none" xmlns="http://www.w3.org/2000/svg">
<path d="M148.5 19.5V79.5" stroke="#44C7FF"/>
<path d="M29 100L133.998 100.724" stroke="#44C7FF"/>
<path d="M21.5 80.5C33.1326 80.5 42.5 89.2639 42.5 100C42.5 110.736 33.1326 119.5 21.5 119.5C9.86735 119.5 0.5 110.736 0.5 100C0.5 89.2639 9.86735 80.5 21.5 80.5Z" fill="#44C7FF" stroke="#44C7FF"/>
<path d="M163 99.6367L268 99.6287" stroke="#44C7FF"/>
<path d="M275.5 81.5C287.133 81.5 296.5 90.2639 296.5 101C296.5 111.736 287.133 120.5 275.5 120.5C263.867 120.5 254.5 111.736 254.5 101C254.5 90.2639 263.867 81.5 275.5 81.5Z" fill="#44C7FF" stroke="#44C7FF"/>
<path d="M147.5 0.5C159.133 0.5 168.5 9.26389 168.5 20C168.5 30.7361 159.133 39.5 147.5 39.5C135.867 39.5 126.5 30.7361 126.5 20C126.5 9.26389 135.867 0.5 147.5 0.5Z" fill="#44C7FF" stroke="#44C7FF"/>
<path d="M148 126V331" stroke="#44C7FF"/>
<path d="M29 351.008L134 351.001" stroke="#44C7FF"/>
<path d="M148 372L149 489" stroke="#44C7FF"/>
<path d="M163 351.016L268 351.007" stroke="#44C7FF"/>
<path d="M148.5 473.5C160.133 473.5 169.5 482.264 169.5 493C169.5 503.736 160.133 512.5 148.5 512.5C136.867 512.5 127.5 503.736 127.5 493C127.5 482.264 136.867 473.5 148.5 473.5Z" fill="#44C7FF" stroke="#44C7FF"/>
<path d="M275.5 331.5C287.133 331.5 296.5 340.264 296.5 351C296.5 361.736 287.133 370.5 275.5 370.5C263.867 370.5 254.5 361.736 254.5 351C254.5 340.264 263.867 331.5 275.5 331.5Z" fill="#44C7FF" stroke="#44C7FF"/>
<path d="M21.5 331.5C33.1326 331.5 42.5 340.264 42.5 351C42.5 361.736 33.1326 370.5 21.5 370.5C9.86735 370.5 0.5 361.736 0.5 351C0.5 340.264 9.86735 331.5 21.5 331.5Z" fill="#44C7FF" stroke="#44C7FF"/>
</svg>
